<?xml version="1.0" encoding="utf-8"?>
<!-- Generator: Adobe Illustrator 16.0.2, SVG Export Plug-In . SVG Version: 6.00 Build 0)  -->
<!DOCTYPE svg PUBLIC "-//W3C//DTD SVG 1.1//EN" "http://www.w3.org/Graphics/SVG/1.1/DTD/svg11.dtd">
<svg version="1.1" id="Слой_1" xmlns="http://www.w3.org/2000/svg" xmlns:xlink="http://www.w3.org/1999/xlink" x="0px" y="0px"
	 width="663px" height="291.25px" viewBox="0 0 663 291.25" enable-background="new 0 0 663 291.25" xml:space="preserve">
<g>
	<circle fill="#44484D" cx="198.688" cy="-92.725" r="4.124"/>
	<path fill="#44484D" d="M198.688-51.944c2.278,0,4.125,1.847,4.125,4.126c0,2.275-1.847,4.124-4.125,4.124
		s-4.125-1.848-4.125-4.124C194.564-50.097,196.41-51.944,198.688-51.944z"/>
	<circle fill="#44484D" cx="221.141" cy="-70.272" r="4.125"/>
	<circle fill="#44484D" cx="176.007" cy="-70.272" r="4.125"/>
	<path fill="#F9662D" d="M209.253-59.737l-0.794-2.979l-0.794,0.793l-3.374-3.375c0.992-1.19,1.587-2.776,1.786-4.365h4.962v0.993
		l2.778-1.39l-2.778-1.39v0.993h-5.16c-0.199-1.588-0.793-3.175-1.786-4.167l3.572-3.574l0.794,0.795l0.794-2.979l-2.977,0.796
		l0.793,0.793l-3.573,3.572c-1.19-0.993-2.58-1.588-4.167-1.785v-5.162h0.992l-1.39-2.777l-1.389,2.777h0.993v5.162
		c-1.588,0.197-3.175,0.793-4.167,1.785l-3.573-3.572l0.793-0.793l-2.978-0.796l0.794,2.979l0.794-0.795l3.573,3.574
		c-0.993,1.19-1.787,2.579-1.787,4.167h-4.961v-0.993l-2.778,1.39l2.778,1.39v-0.993h4.961c0,1.588,0.793,3.175,1.787,4.365
		l-3.374,3.375l-0.795-0.793l-0.793,2.979l2.978-0.794l-0.794-0.796l3.375-3.371c1.189,0.993,2.777,1.784,4.365,1.784v4.764h-0.993
		l1.391,2.777l1.388-2.777h-0.992v-4.764c1.588-0.197,3.176-0.792,4.367-1.784l3.374,3.371l-0.794,0.796L209.253-59.737z"/>
	<circle fill="#44484D" cx="214.496" cy="-86.31" r="4.125"/>
	<circle fill="#44484D" cx="182.65" cy="-54.234" r="4.125"/>
	<circle fill="#44484D" cx="214.496" cy="-54.234" r="4.125"/>
	<circle fill="#44484D" cx="182.65" cy="-86.31" r="4.125"/>
</g>
<g>
	<path fill="#F9662D" d="M606.596,44.006c-0.814,0-1.479,0.654-1.479,1.476l0.028,9.296c0.005,0.819,0.671,1.485,1.482,1.485
		c0.002,0,0.004,0,0.005,0c0.463,0,0.875-0.227,1.147-0.559l0.587,9.073c0.052,0.81,0.724,1.433,1.535,1.433h3.062
		c0.813,0,1.484-0.629,1.536-1.439l0.586-9.086c0.271,0.354,0.686,0.578,1.146,0.578c0,0,0.002,0,0.005,0
		c0.813,0,1.479-0.69,1.48-1.502l0.031-9.292c0.001-0.814-0.661-1.565-1.479-1.565c-0.003,0-0.003,0-0.003,0
		c-0.646,0-9.026,0.1-9.676,0.1C606.6,44.006,606.597,44.006,606.596,44.006z"/>
	<circle fill="#F9662D" cx="611.438" cy="38.851" r="4.118"/>
	<path fill="#F9662D" d="M621.93,44.006c-0.815,0-1.479,0.654-1.479,1.476l0.031,9.296c0,0.819,0.669,1.485,1.481,1.485
		c0,0,0.003,0,0.006,0c0.461,0,0.875-0.227,1.146-0.559l0.584,9.073c0.053,0.81,0.726,1.433,1.538,1.433h3.061
		c0.813,0,1.483-0.629,1.535-1.439l0.586-9.086c0.271,0.354,0.683,0.578,1.146,0.578c0.004,0,0.004,0,0.007,0
		c0.813,0,1.479-0.69,1.479-1.502l0.03-9.292c0.004-0.814-0.66-1.565-1.479-1.565c-0.002,0-0.006,0-0.006,0
		c-0.646,0-9.025,0.1-9.672,0.1C621.935,44.006,621.933,44.006,621.93,44.006z"/>
	<circle fill="#F9662D" cx="626.771" cy="38.851" r="4.118"/>
	<path fill="#44484D" d="M650.146,36.814c-0.693-0.248-1.468-0.089-2,0.393c-5.364-11.063-16.606-18.247-29.141-18.247
		c-14.688,0-27.574,9.92-31.33,24.125c-0.313,1.211-0.056,2.543,0.708,3.536c0.771,0.994,1.969,1.605,3.222,1.605h0.026
		c1.957,0,3.688-1.337,4.207-3.226c2.866-10.401,12.396-17.675,23.167-17.675c9.192,0,17.359,5.145,21.398,13.151
		c-0.738,0.029-1.411,0.466-1.729,1.153c-0.354,0.772-0.181,1.684,0.438,2.268l8.803,8.377c0.573,0.546,1.413,0.697,2.138,0.394
		c0.729-0.306,1.206-1.013,1.218-1.803l0.188-12.151C651.475,37.865,650.946,37.102,650.146,36.814z"/>
	<path fill="#44484D" d="M646.335,55.469c-1.966,0-3.701,1.323-4.222,3.215c-2.877,10.437-12.438,17.728-23.246,17.728
		c-9.229,0-17.418-5.168-21.479-13.203c0.738-0.027,1.416-0.469,1.729-1.156c0.355-0.775,0.182-1.693-0.438-2.279l-8.834-8.406
		c-0.568-0.546-1.411-0.699-2.146-0.395c-0.729,0.306-1.209,1.016-1.22,1.81l-0.188,12.192c-0.011,0.854,0.521,1.62,1.322,1.906
		c0.697,0.25,1.468,0.093,2.007-0.394c5.394,11.103,16.666,18.31,29.239,18.31c14.74,0,27.668-9.957,31.438-24.209
		c0.319-1.215,0.06-2.533-0.714-3.529C648.827,56.064,647.619,55.469,646.335,55.469z"/>
</g>
<g>
	<path fill="#F9662D" d="M521.624-46.16c-0.652,0-1.182,0.523-1.182,1.179l0.021,7.425c0.003,0.655,0.535,1.187,1.188,1.187
		c0.002,0,0.004,0,0.004,0c0.37,0,0.699-0.181,0.917-0.446l0.469,7.247c0.041,0.647,0.578,1.145,1.227,1.145h2.445
		c0.649,0,1.188-0.502,1.229-1.149l0.469-7.258c0.217,0.283,0.547,0.462,0.916,0.462c0,0,0,0,0.003,0c0.647,0,1.183-0.551,1.185-1.2
		l0.025-7.422c0-0.65-0.528-1.25-1.183-1.25c-0.003,0-0.003,0-0.003,0C528.836-46.24,522.14-46.16,521.624-46.16
		C521.628-46.16,521.625-46.16,521.624-46.16z"/>
	<circle fill="#F9662D" cx="525.493" cy="-50.278" r="3.29"/>
	<path fill="#F9662D" d="M533.873-46.16c-0.653,0-1.185,0.523-1.181,1.179l0.021,7.425c0,0.655,0.534,1.187,1.188,1.187
		c0,0,0.003,0,0.005,0c0.367,0,0.696-0.181,0.916-0.446l0.467,7.247c0.042,0.647,0.579,1.145,1.229,1.145h2.444
		c0.65,0,1.187-0.502,1.228-1.149l0.47-7.258c0.217,0.283,0.545,0.462,0.916,0.462c0.002,0,0.002,0,0.005,0
		c0.648,0,1.182-0.551,1.184-1.2l0.024-7.422c0.003-0.65-0.527-1.25-1.185-1.25c-0.002,0-0.005,0-0.005,0
		C541.084-46.24,534.388-46.16,533.873-46.16C533.877-46.16,533.875-46.16,533.873-46.16z"/>
	<circle fill="#F9662D" cx="537.74" cy="-50.278" r="3.29"/>
	<path fill="#44484D" d="M556.411-51.905c-0.557-0.198-1.172-0.071-1.597,0.314c-4.288-8.837-13.271-14.576-23.277-14.576
		c-11.732,0-22.026,7.924-25.026,19.271c-0.252,0.967-0.045,2.031,0.565,2.825c0.614,0.793,1.572,1.282,2.573,1.282h0.021
		c1.563,0,2.946-1.068,3.36-2.577c2.289-8.309,9.899-14.119,18.506-14.119c7.343,0,13.866,4.11,17.093,10.505
		c-0.59,0.023-1.127,0.372-1.381,0.921c-0.282,0.617-0.146,1.345,0.351,1.812l7.031,6.691c0.458,0.436,1.129,0.557,1.707,0.315
		c0.583-0.245,0.964-0.813,0.975-1.44l0.148-9.706C557.474-51.065,557.052-51.675,556.411-51.905z"/>
	<path fill="#44484D" d="M553.368-37.003c-1.57,0-2.957,1.057-3.373,2.568c-2.298,8.337-9.938,14.161-18.568,14.161
		c-7.369,0-13.913-4.128-17.151-10.546c0.59-0.021,1.131-0.375,1.382-0.923c0.285-0.619,0.145-1.353-0.354-1.821l-7.057-6.714
		c-0.456-0.436-1.129-0.558-1.714-0.315c-0.583,0.244-0.966,0.813-0.978,1.446l-0.147,9.739c-0.009,0.682,0.417,1.294,1.057,1.522
		c0.56,0.2,1.172,0.075,1.604-0.315c4.307,8.869,13.313,14.626,23.354,14.626c11.774,0,22.104-7.954,25.112-19.338
		c0.255-0.97,0.045-2.023-0.57-2.819C555.358-36.528,554.394-37.003,553.368-37.003z"/>
</g>
<g>
	<path fill="#44484D" d="M559.289,148.482v-28.929c0-6.286-5.158-11.379-11.444-11.379H503.82c-6.288,0-11.421,5.093-11.421,11.379
		v28.929c0,3.845,1.921,7.254,4.848,9.316l-0.366,0.006c-0.002,0-0.012,0-0.015,0c-2.447,0-4.438,1.977-4.443,4.426
		c-0.013,2.455,1.979,4.41,4.435,4.42l57.793,0.146c0.008,0,0.011,0,0.019,0c2.447,0,4.438-1.938,4.443-4.394
		c0.007-2.457-1.979-4.436-4.436-4.442l-0.503,0.015C557.24,155.922,559.289,152.441,559.289,148.482z M553.414,148.482
		c0,3.084-2.486,5.484-5.57,5.484H503.82c-3.083,0-5.668-2.4-5.668-5.484v-28.929c0-3.083,2.584-5.623,5.668-5.623h44.021
		c3.083,0,5.57,2.542,5.57,5.623L553.414,148.482L553.414,148.482z"/>
	<polygon fill="#F9662D" points="528.742,123.336 522.971,123.336 520.658,129.732 531.052,129.732 	"/>
	<path fill="#F9662D" d="M531.979,123.336l2.313,6.394h3.135c0.231,0,0.452-0.117,0.58-0.312c0.131-0.192,0.152-0.438,0.063-0.654
		l-1.601-3.84c-0.396-0.961-1.338-1.588-2.38-1.588H531.979L531.979,123.336z"/>
	<path fill="#F9662D" d="M519.729,123.336h-2.116c-1.041,0-1.979,0.627-2.379,1.588l-1.6,3.84c-0.09,0.216-0.063,0.46,0.063,0.654
		c0.131,0.192,0.351,0.312,0.581,0.312h3.137L519.729,123.336z"/>
	<path fill="#F9662D" d="M520.817,131.558l4.592,13.258c0.063,0.188,0.245,0.317,0.447,0.317c0.197,0,0.38-0.129,0.442-0.317
		l4.592-13.258H520.817z"/>
	<path fill="#F9662D" d="M514.558,131.558c-0.257,0-0.494,0.144-0.611,0.37c-0.121,0.229-0.104,0.507,0.04,0.722l6.636,9.779
		c0.102,0.147,0.297,0.196,0.455,0.118c0.159-0.079,0.231-0.271,0.18-0.438l-3.656-10.557h-3.038L514.558,131.558L514.558,131.558z"
		/>
	<path fill="#F9662D" d="M530.465,142.113c-0.06,0.168,0.021,0.354,0.178,0.435c0.159,0.08,0.354,0.029,0.455-0.114l6.64-9.777
		c0.146-0.215,0.161-0.489,0.038-0.722c-0.119-0.229-0.355-0.37-0.614-0.37h-3.033L530.465,142.113z"/>
</g>
<g>
	<g>
		<path fill="#F9662D" d="M445.919-61.022c-0.003,0-16.332-0.006-17.494-0.006c0,0-0.008,0-0.009,0c-1.487,0-2.699,1.23-2.695,2.719
			l0.063,16.843c0.006,1.483,1.209,2.715,2.688,2.715c0.003,0,0.007,0,0.016,0c0.836,0,1.579-0.418,2.067-1.021l1.063,16.395
			c0.094,1.465,1.311,2.565,2.773,2.565h5.542c1.472,0,2.687-1.114,2.778-2.58l1.063-16.424c0.486,0.636,1.231,1.065,2.071,1.065
			c0.003,0,0.004,0,0.017,0c1.478,0,2.681-1.256,2.688-2.727l0.061-16.813C448.608-59.764,447.404-61.022,445.919-61.022z"/>
		<circle fill="#F9662D" cx="437.165" cy="-70.271" r="7.45"/>
		<path fill="#44484D" d="M420.632-73.206c-0.001,0-12.831-0.004-13.741-0.004c0,0-0.006,0-0.008,0
			c-1.167,0-2.119,0.969-2.117,2.137l0.045,13.231c0.008,1.166,0.951,2.133,2.112,2.133c0.001,0,0.005,0,0.007,0
			c0.657,0,1.244-0.328,1.629-0.801l0.834,12.876c0.075,1.15,1.03,2.017,2.188,2.017h4.354c1.151,0,2.105-0.878,2.188-2.028
			l0.83-12.901c0.388,0.5,0.972,0.838,1.631,0.838c0.001,0,0.003,0,0.007,0c1.162,0,2.104-0.986,2.113-2.141l0.043-13.211
			C422.742-72.217,421.799-73.206,420.632-73.206z"/>
		<circle fill="#44484D" cx="413.754" cy="-80.471" r="5.852"/>
	</g>
	<g>
		<path fill="#44484D" d="M453.692-73.206c0.001,0,12.831-0.004,13.735-0.004h0.011c1.17,0,2.116,0.969,2.114,2.137l-0.045,13.231
			c-0.006,1.166-0.946,2.133-2.105,2.133c-0.001,0-0.01,0-0.014,0c-0.65,0-1.236-0.328-1.628-0.801l-0.835,12.876
			c-0.067,1.15-1.023,2.017-2.185,2.017h-4.354c-1.146,0-2.104-0.878-2.186-2.028l-0.83-12.901c-0.388,0.5-0.971,0.838-1.631,0.838
			c-0.001,0-0.003,0-0.007,0c-1.162,0-2.108-0.986-2.114-2.141l-0.044-13.211C451.583-72.217,452.526-73.206,453.692-73.206z"/>
		<circle fill="#44484D" cx="460.57" cy="-80.471" r="5.852"/>
	</g>
</g>
<g>
	<g>
		<path fill="#F9662D" d="M455.548,169.952c0-23.224-4.675-28.685-14.479-28.685c-9.811,0-14.479,5.896-14.479,28.685
			c0,0,4.757,2.604,14.326,2.604S455.548,169.952,455.548,169.952z"/>
	</g>
	<path fill="#F9662D" d="M446.352,112.428l-2.146,4.546l-2.869-0.545l-1.471,3.261l-0.621-4.306l2.953-0.548l-0.295-3.705
		c-0.338-0.027-0.685-0.049-1.024-0.049c-2.382,0-4.615,0.719-6.546,1.967l3.119,3.24l-1.523,4.435l4.853,3.085h-6.986l-0.192-4.821
		l-4.242-0.271c-1.094,2.185-1.72,4.708-1.72,7.396c0,8.302,6.185,14.214,13.493,14.214c7.313,0,12.994-5.912,12.994-14.214
		C454.122,120.029,450.935,114.792,446.352,112.428z"/>
	<path fill="#FFFFFF" d="M441.145,131.97c-3.261,0-5.898,1.983-5.898,4.43h11.807C447.048,133.954,444.403,131.97,441.145,131.97z"
		/>
	<path fill="#F9662D" d="M453.292,126.59c0,0,0.783-1.036,1.718-0.75c0.938,0.289,0.6,3.895-0.609,4.711
		c-1.216,0.816-1.529,0.793-1.813-0.004"/>
	<path fill="#F9662D" d="M428.371,126.552c0,0-0.835-0.997-1.753-0.664c-0.92,0.334-0.403,3.918,0.846,4.675
		c1.249,0.755,1.566,0.716,1.813-0.094"/>
	<circle fill="#FFFFFF" cx="435.454" cy="126.837" r="1.364"/>
	<circle fill="#FFFFFF" cx="446.835" cy="126.837" r="1.364"/>
	<g>
		<path fill="#F9662D" d="M447.108,146.118c-1.055-1.933-0.244-2.83,1.791-1.996l9.153,3.76c2.035,0.834,4.163-0.221,4.729-2.348
			l1.106-4.183c0.565-2.127,2.827-3.866,5.027-3.866h1.771c2.195,0,4.091,1.219,4.194,2.707c0.109,1.489-1.107,2.819-2.717,2.957
			c-1.604,0.139-3.406,1.982-4.003,4.1l-1.495,5.301c-0.597,2.117-2.849,3.486-5.003,3.041l-6.688-1.383
			c-2.152-0.438-4.774-2.392-5.824-4.317L447.108,146.118z"/>
	</g>
	<g>
		<path fill="#F9662D" d="M434.28,146.118c1.051-1.933,0.246-2.83-1.791-1.996l-9.157,3.76c-2.035,0.834-4.163-0.221-4.729-2.348
			l-1.108-4.183c-0.564-2.127-2.826-3.866-5.026-3.866h-1.77c-2.199,0-4.09,1.219-4.198,2.707c-0.108,1.489,1.112,2.819,2.717,2.957
			c1.604,0.139,3.406,1.982,4.003,4.1l1.495,5.301c0.597,2.117,2.851,3.486,5.003,3.041l6.69-1.383
			c2.15-0.438,4.772-2.392,5.828-4.317L434.28,146.118z"/>
	</g>
</g>
<g>
	<g>
		<path fill="#44484D" d="M698.588-65.889l-4.37,16.551c-1.547,3.099-3.991,3.061-5.449-0.081l-4.34-16.255
			c-6.47,3.089-9.594,11.889-9.594,31.967c0,0,5.535,3.03,16.664,3.03c11.133,0,17.021-3.03,17.021-3.03
			C708.521-54.521,705.287-63.062,698.588-65.889z"/>
		<path fill="#F9662D" d="M690.188-52.441c0.56,1.28,1.541,1.319,2.191,0.086l2.229-7.679l-2.566-2.748l1.944-2.023l-2.524-1.493
			l-2.476,1.42l1.888,2.056l-2.569,2.576L690.188-52.441z"/>
		<path fill="#44484D" d="M697.822-100.617l-2.495,5.288l-3.339-0.634l-1.712,3.793l-0.725-5.008l3.438-0.636l-0.347-4.31
			c-0.396-0.033-0.791-0.057-1.188-0.057c-2.771,0-5.368,0.835-7.614,2.288l3.628,3.768l-1.771,5.159l5.637,3.588h-8.127
			l-0.226-5.608l-4.938-0.316c-1.27,2.542-1.997,5.476-1.997,8.604c0,9.656,7.188,16.534,15.696,16.534s15.109-6.878,15.109-16.534
			C706.861-91.775,703.153-97.868,697.822-100.617z"/>
		<path fill="#44484D" d="M705.896-84.144c0,0,0.912-1.205,1.998-0.871c1.091,0.335,0.692,4.529-0.714,5.479
			c-1.405,0.95-1.776,0.922-2.104-0.005"/>
		<path fill="#44484D" d="M676.906-84.188c0,0-0.976-1.16-2.038-0.772c-1.069,0.388-0.476,4.557,0.979,5.438
			c1.453,0.878,1.824,0.833,2.105-0.109"/>
		<g>
			<path fill="#44484D" d="M698.392-62.003c-1.051-1.933-0.242-2.831,1.79-1.996l11.861,4.868c2.035,0.835,4.163-0.221,4.729-2.348
				l1.629-6.126c0.563-2.126,2.827-3.866,5.024-3.866h3.362c2.2,0,4.104,1.417,4.229,3.149c0.129,1.731-1.297,3.279-3.158,3.438
				c-1.865,0.16-3.885,2.023-4.479,4.141l-2.093,7.422c-0.602,2.117-2.854,3.485-5.003,3.041l-9.063-1.872
				c-2.151-0.444-4.772-2.39-5.826-4.323L698.392-62.003z"/>
		</g>
		<g>
			<path fill="#44484D" d="M684.094-62.003c1.052-1.933,0.245-2.831-1.79-1.996l-11.857,4.868c-2.032,0.835-4.162-0.221-4.729-2.347
				l-1.63-6.128c-0.563-2.125-2.827-3.865-5.027-3.865h-3.358c-2.198,0-4.104,1.417-4.23,3.149
				c-0.127,1.731,1.295,3.279,3.162,3.438c1.865,0.16,3.881,2.023,4.479,4.141l2.095,7.422c0.599,2.117,2.85,3.485,5.004,3.041
				l9.063-1.872c2.152-0.444,4.774-2.39,5.825-4.323L684.094-62.003z"/>
		</g>
	</g>
	<path fill="#FFFFFF" d="M691.765-76.951c-2.416,0-4.375,1.47-4.375,3.283h8.751C696.141-75.481,694.182-76.951,691.765-76.951z"/>
	<circle fill="#FFFFFF" cx="685.146" cy="-82.693" r="1.587"/>
	<circle fill="#FFFFFF" cx="698.385" cy="-82.693" r="1.586"/>
</g>
<g>
	<path fill="#44484D" d="M32.887-55.685c0.333-0.422,0.671-0.836,1.025-1.236c0.452-0.52,0.927-1.033,1.424-1.521
		c1.787-1.787,3.761-3.317,5.908-4.591v-0.498c0-1.16-0.942-2.094-2.095-2.094H36.82c-0.415,0-0.799,0.196-1.033,0.535l-3.436,4.861
		l-0.837-1.764l1.334-2.803c0.181-0.384-0.098-0.829-0.521-0.829H29.66c-0.422,0-0.708,0.445-0.52,0.829l1.333,2.803l-0.821,1.733
		l-3.354-4.816c-0.234-0.339-0.625-0.549-1.041-0.549h-2.45c-1.16,0-2.094,0.942-2.094,2.094v13.935h8.494
		C30.196-51.772,31.425-53.807,32.887-55.685z"/>
	<path fill="#44484D" d="M24.22-73.718c0,3.723,3.03,6.752,6.752,6.752c3.723,0,6.753-3.03,6.753-6.752
		c0-3.723-3.03-6.753-6.753-6.753C27.25-80.471,24.22-77.441,24.22-73.718z"/>
	<path fill="#44484D" d="M87.89-65.625c-0.415,0-0.799,0.196-1.033,0.535l-3.436,4.861l-0.837-1.764l1.334-2.803
		c0.18-0.384-0.099-0.829-0.521-0.829H80.73c-0.422,0-0.708,0.445-0.52,0.829l1.333,2.803l-0.821,1.733l-3.346-4.816
		c-0.234-0.339-0.625-0.549-1.04-0.549h-2.449c-1.161,0-2.095,0.942-2.095,2.094v0.536c2.117,1.258,4.069,2.781,5.833,4.544
		c0.512,0.513,1.002,1.041,1.47,1.576c0.332,0.384,0.663,0.783,0.971,1.183c1.463,1.876,2.699,3.912,3.679,6.089h8.569V-63.53
		c0-1.16-0.942-2.094-2.095-2.094L87.89-65.625L87.89-65.625z"/>
	<path fill="#44484D" d="M75.294-73.718c0,3.723,3.03,6.752,6.753,6.752c3.723,0,6.752-3.03,6.752-6.752
		c0-3.723-3.03-6.753-6.752-6.753C78.325-80.471,75.294-77.441,75.294-73.718z"/>
	<path fill="#44484D" d="M91.206-14.511l-9.262-7.1c-1.214,1.975-2.661,3.799-4.319,5.458c-0.136,0.136-0.28,0.271-0.422,0.406
		l9.413,7.213c0.686,0.527,1.492,0.775,2.291,0.775c1.13,0,2.253-0.505,2.992-1.477C93.166-10.878,92.855-13.245,91.206-14.511z"/>
	<path fill="#F9662D" d="M66.771-37.438c0-1.161-0.942-2.095-2.094-2.095h-2.329c-0.415,0-0.799,0.196-1.033,0.536l-3.436,4.86
		L57.042-35.9l1.335-2.804c0.181-0.384-0.099-0.829-0.521-0.829h-2.667c-0.422,0-0.709,0.444-0.521,0.829L56-35.899l-0.821,1.733
		l-3.339-4.816c-0.232-0.34-0.625-0.55-1.039-0.55h-2.45c-1.161,0-2.095,0.942-2.095,2.095v13.935h20.522v-13.935L66.771-37.438
		L66.771-37.438z"/>
	<path fill="#F9662D" d="M56.515-40.867c3.723,0,6.753-3.03,6.753-6.753s-3.03-6.752-6.753-6.752c-3.723,0-6.752,3.03-6.752,6.752
		C49.762-43.897,52.792-40.867,56.515-40.867z"/>
	<path fill="#44484D" d="M45.57-11.481C49.029-10.02,52.7-9.28,56.476-9.28c3.783,0,7.455-0.739,10.905-2.201
		c3.083-1.304,5.872-3.127,8.307-5.418c0.203-0.189,0.406-0.385,0.602-0.581c1.598-1.598,2.984-3.368,4.145-5.275
		c0.701-1.168,1.327-2.374,1.854-3.633c1.462-3.459,2.201-7.129,2.201-10.905s-0.739-7.453-2.201-10.905
		c-0.196-0.468-0.406-0.935-0.633-1.386c-1.356-2.781-3.158-5.306-5.374-7.522c-1.378-1.378-2.886-2.6-4.498-3.655
		c-1.395-0.913-2.865-1.695-4.41-2.352c-3.459-1.463-7.129-2.2-10.905-2.2c-3.783,0-7.453,0.737-10.905,2.2
		c-1.514,0.64-2.962,1.41-4.333,2.298c-1.642,1.063-3.172,2.298-4.575,3.701c-2.209,2.209-4.01,4.732-5.374,7.521
		c-0.218,0.453-0.437,0.919-0.633,1.388c-1.461,3.459-2.2,7.129-2.2,10.905c0,3.776,0.739,7.453,2.2,10.905
		c1.41,3.338,3.429,6.33,6.007,8.908C39.232-14.917,42.231-12.899,45.57-11.481z M40.778-49.594c0.15-0.188,0.301-0.376,0.459-0.558
		c0.362-0.428,0.739-0.843,1.146-1.244c3.768-3.767,8.771-5.84,14.1-5.84s10.333,2.073,14.094,5.84
		c0.429,0.43,0.837,0.874,1.221,1.335c0.128,0.159,0.256,0.309,0.384,0.475c2.75,3.496,4.235,7.777,4.235,12.292
		c0,5.328-2.072,10.333-5.84,14.101c-3.769,3.769-8.773,5.84-14.094,5.84c-5.321,0-10.332-2.072-14.092-5.84
		c-3.769-3.769-5.842-8.773-5.842-14.101C36.542-41.816,38.035-46.097,40.778-49.594z"/>
</g>
<g>
	<path fill="#44484D" d="M147.577,182.57c20.727,0,37.528-16.803,37.528-37.526c0-6.379-1.586-12.379-4.388-17.635
		c-0.307,0.045-0.623,0.063-0.929,0.063c-0.175,0-0.359-0.011-0.543-0.019l-4.774-0.369l-3.434,3.437
		c2.619,4.226,4.134,9.198,4.134,14.522c0,15.23-12.352,27.586-27.584,27.586c-15.233,0-27.594-12.354-27.594-27.586
		c0-15.232,12.351-27.583,27.584-27.583c5.335,0,10.311,1.516,14.524,4.134l3.11-3.11l-0.42-5.476
		c-0.035-0.437-0.025-0.874,0.018-1.304c-5.16-2.673-11.021-4.187-17.239-4.187c-20.718,0-37.52,16.801-37.52,37.524
		C110.05,165.768,126.852,182.57,147.577,182.57z"/>
	<path fill="#F9662D" d="M147.577,135.345c0.246,0,0.491,0.008,0.736,0.026l6.929-6.934l0.148-0.146
		c-2.374-1.11-5.019-1.732-7.814-1.732c-10.205,0-18.474,8.27-18.474,18.475c0,10.204,8.269,18.481,18.474,18.481
		c10.206,0,18.475-8.268,18.475-18.475c0-2.793-0.622-5.439-1.734-7.813l-0.149,0.149l-6.929,6.93
		c0.017,0.245,0.027,0.488,0.027,0.734c0,5.354-4.336,9.693-9.697,9.693c-5.362,0-9.689-4.346-9.689-9.693
		C137.88,139.691,142.226,135.345,147.577,135.345z"/>
	<path fill="#F9662D" d="M186.253,111.58l2.225-2.226c1.017-1.016,1.017-2.654,0-3.67l-1.542-1.551
		c-0.508-0.509-1.173-0.762-1.831-0.762c-0.657,0-1.332,0.253-1.831,0.762l-2.548,2.55l-0.526-6.79
		c-0.036-0.498-0.447-0.806-0.876-0.806c-0.219,0-0.438,0.079-0.613,0.254l-10.03,10.03c-0.902,0.902-1.366,2.155-1.27,3.435
		l0.026,0.395l0.482,6.279l-3.626,3.627l-6.526,6.526l-0.148,0.146l-6.316,6.316l-2.804,2.804c-0.368,0.368-0.595,0.855-0.63,1.375
		l-0.175,2.198c-0.104,1.276,0.911,2.362,2.182,2.362c0.035,0,0.07,0,0.113,0l2.321-0.111c0.543-0.025,1.06-0.254,1.437-0.641
		l2.777-2.775l6.315-6.313l0.149-0.149l6.526-6.524l3.942-3.943l5.729,0.438l0.254,0.017c0.114,0.013,0.228,0.013,0.332,0.013
		c1.157,0,2.27-0.456,3.103-1.279l10.021-10.021c0.526-0.525,0.193-1.435-0.552-1.489L186.253,111.58z"/>
</g>
<g>
	<path fill="#F9662D" d="M236.05-130.481c0,3.922,3.102,7.102,6.93,7.102s6.931-3.18,6.931-7.102c0-2.974-1.786-5.518-4.313-6.57
		l0.434-0.587c0,0,1.673-2.428,1.802-2.606c0.297-0.408,0.694-2.281-2.08,0.234c-2.772,2.517-7.539-2.133-7.725-1.521
		c-0.19,0.615,2.734,3.893,2.734,3.893l0.304,0.339C238.169-136.447,236.05-133.723,236.05-130.481z M242.702-130.353
		c-1.241-0.354-2.09-0.844-2.09-1.796c0-0.86,0.724-1.535,1.964-1.743v-0.931h1.139v0.86c0.776,0.03,1.302,0.167,1.684,0.323
		l-0.338,1.109c-0.3-0.108-0.835-0.334-1.673-0.334c-0.754,0-0.997,0.271-0.997,0.548c0,0.321,0.405,0.529,1.393,0.844
		c1.38,0.409,1.94,0.948,1.94,1.831c0,0.871-0.733,1.615-2.067,1.813v0.998h-1.138v-0.933c-0.78-0.026-1.535-0.203-1.978-0.42
		l0.351-1.148c0.489,0.228,1.171,0.433,1.929,0.433c0.66,0,1.114-0.215,1.114-0.605
		C243.934-129.872,243.561-130.108,242.702-130.353z"/>
	<path fill="#F9662D" d="M283.633-138.59c-4.193,0-7.604,3.412-7.604,7.604c0,4.19,3.411,7.604,7.604,7.604
		c4.194,0,7.604-3.412,7.604-7.604C291.237-135.179,287.827-138.59,283.633-138.59z M283.633-125.057
		c-3.272,0-5.931-2.659-5.931-5.931c0-3.272,2.659-5.931,5.931-5.931c3.269,0,5.931,2.658,5.931,5.931
		C289.563-127.716,286.902-125.057,283.633-125.057z"/>
	<path fill="#F9662D" d="M288.493-133.098c-0.227-0.409-0.738-0.563-1.151-0.338l-3.521,1.919l-3.959-1.938
		c-0.423-0.203-0.932-0.031-1.136,0.389c-0.206,0.421-0.031,0.93,0.389,1.133l4.356,2.13c0.117,0.059,0.242,0.088,0.372,0.088
		c0.137,0,0.28-0.035,0.407-0.104l3.903-2.131C288.562-132.172,288.717-132.687,288.493-133.098z"/>
	<path fill="#44484D" d="M262.988-135.446c4.619-0.088,8.338-3.857,8.338-8.498c0-4.642-3.719-8.411-8.338-8.5
		c-4.62,0.089-8.338,3.858-8.338,8.5C254.65-139.304,258.368-135.534,262.988-135.446z"/>
	<path fill="#44484D" d="M284.649-121.432c-2.455-0.001-5.467-0.11-6.831-0.28c-0.413-0.563-1.033-1.501-1.519-2.232
		c-1.725-2.603-3.779-5.684-6.028-7.815c-1.671-1.586-3.176-2.678-5.131-3.208c-0.008-0.001-0.015-0.001-0.024-0.003l-2.053,2.156
		l-0.075-0.076l2.147,14.1l-2.051,2.808h-0.04l-0.056-0.076l-0.056,0.076h-0.04l-2.052-2.808l2.147-14.1l-0.076,0.076l-2.053-2.156
		c-0.008,0.002-0.016,0.002-0.023,0.003c-1.955,0.53-3.46,1.622-5.131,3.208c-2.25,2.134-4.303,5.215-6.028,7.815
		c-0.486,0.732-1.106,1.67-1.52,2.232c-1.363,0.17-4.375,0.279-6.831,0.28c-1.824,0.002-3.3,1.481-3.298,3.305
		c0.001,1.822,1.479,3.298,3.3,3.298c0,0,0.002,0,0.003,0c8.022-0.005,9.402-0.652,9.922-0.896c1.043-0.489,1.785-1.396,2.956-3.121
		v9.799c0,1.411,0.625,3.091,0.77,3.271c-0.022,0.166-0.024,31.588-0.024,31.588c0,2.156,1.531,3.918,3.685,3.916
		c2.156,0,3.902-1.746,3.901-3.901l-0.003-27.131l0.449,0.001l0.449-0.001l-0.003,27.131c-0.001,2.155,1.746,3.901,3.901,3.901
		c2.153,0.002,3.685-1.76,3.685-3.916c0,0-0.002-31.422-0.023-31.588c0.145-0.181,0.769-1.858,0.769-3.271v-9.799
		c1.172,1.728,1.913,2.632,2.956,3.121c0.521,0.243,1.901,0.892,9.922,0.896c0.001,0,0.003,0,0.003,0c1.822,0,3.299-1.476,3.3-3.298
		C287.949-119.95,286.472-121.431,284.649-121.432z"/>
</g>
<g>
	<path fill="#F9662D" d="M527.254,193.456l-25.896,4.459v21.629l28.484,1.703L527.254,193.456z"/>
	<g>
		<path fill="#F9662D" d="M527.737,193.62c-0.034-0.367-0.359-0.615-0.729-0.554l-25.515,4.394
			c-0.362,0.063-0.661,0.414-0.661,0.785v21.067c0,0.369,0.302,0.688,0.67,0.711l28.186,1.687c0.365,0.022,0.643-0.26,0.604-0.627
			L527.737,193.62z M503.855,217.563c-0.367-0.018-0.672-0.33-0.672-0.699v-6.483c0-0.364,0.305-0.688,0.672-0.715l1.094-0.074
			c0.368-0.021,0.797-0.315,0.952-0.649c0,0,2.988-6.438,6.921-6.438c3.599,0,6.775,5.504,6.775,5.504
			c0.188,0.315,0.642,0.562,1.01,0.535l5.077-0.347c0.366-0.021,0.695,0.257,0.73,0.623l0.841,9.021
			c0.034,0.367-0.236,0.654-0.604,0.645L503.855,217.563z"/>
	</g>
	<path fill="#F9662D" d="M508.551,218.413c-0.369-0.011-0.525,0.25-0.354,0.575l5.915,11.226c0.172,0.326,0.457,0.328,0.633,0.009
		l5.897-10.897c0.181-0.321,0.021-0.597-0.352-0.604L508.551,218.413z"/>
	<path fill="#FFFFFF" d="M524.796,201.547c0,0.453-0.367,0.822-0.821,0.822l-4.531,0.336c-0.454,0-0.821-0.369-0.821-0.822v-3.738
		c0-0.453,0.367-0.82,0.821-0.82l3.86-0.672c0.454,0,0.821,0.369,0.821,0.822L524.796,201.547z"/>
	<g>
		<path fill="#F9662D" d="M512.822,216.211c-4.069,0-7.381-3.313-7.381-7.383s3.312-7.385,7.381-7.385
			c4.065,0,7.382,3.313,7.382,7.385C520.204,212.898,516.893,216.211,512.822,216.211z M512.822,204.131
			c-2.59,0-4.697,2.104-4.697,4.697c0,2.59,2.107,4.693,4.697,4.693s4.693-2.104,4.693-4.693
			C517.519,206.238,515.412,204.131,512.822,204.131z"/>
	</g>
</g>
<circle fill="#FFFFFF" cx="513.004" cy="210.525" r="6.386"/>
<line fill="none" stroke="#F9662D" stroke-width="2" stroke-linecap="round" stroke-linejoin="round" stroke-miterlimit="10" x1="29.923" y1="202.499" x2="47.771" y2="220.346"/>
<line fill="none" stroke="#F9662D" stroke-width="2" stroke-linecap="round" stroke-linejoin="round" stroke-miterlimit="10" x1="65.62" y1="202.499" x2="47.771" y2="220.346"/>
<line fill="none" stroke="#F9662D" stroke-width="3" stroke-linecap="square" stroke-linejoin="round" stroke-miterlimit="10" x1="332.97" y1="216.329" x2="339.12" y2="210.543"/>
<line fill="none" stroke="#F9662D" stroke-width="3" stroke-linecap="square" stroke-linejoin="round" stroke-miterlimit="10" x1="332.913" y1="216.305" x2="329.409" y2="211.954"/>
<line fill="none" stroke="#FFFFFF" stroke-width="2" stroke-linecap="round" stroke-linejoin="round" stroke-miterlimit="10" x1="93.406" y1="202.499" x2="111.254" y2="220.346"/>
<line fill="none" stroke="#FFFFFF" stroke-width="2" stroke-linecap="round" stroke-linejoin="round" stroke-miterlimit="10" x1="129.103" y1="202.499" x2="111.254" y2="220.346"/>
<g id="bulb">
	<path fill="#F9662D" d="M344,40.044c-6.076,0-11,4.924-11,11c0,4.031,3.688,8.303,5.031,12.055
		c2.003,5.596,1.778,8.945,5.969,8.945c4.25,0,3.965-3.334,5.969-8.922c1.351-3.76,5.031-8.078,5.031-12.078
		C355,44.968,350.074,40.044,344,40.044z M346.592,67.22l-4.958,0.619c-0.177-0.512-0.366-1.111-0.598-1.893
		c-0.003-0.01-0.007-0.021-0.009-0.031l6.188-0.773c-0.088,0.295-0.182,0.605-0.264,0.883
		C346.82,66.474,346.703,66.865,346.592,67.22z M340.736,64.953c-0.185-0.602-0.39-1.236-0.615-1.908h7.766
		c-0.123,0.359-0.246,0.719-0.352,1.059L340.736,64.953z M344,70.044c-1.014,0-1.479-0.117-1.997-1.25l4.238-0.531
		C345.627,69.917,345.18,70.044,344,70.044z M348.672,61.044h-9.333c-0.498-1.08-1.096-2.16-1.687-3.217
		c-1.308-2.335-2.652-4.75-2.652-6.783c0-4.963,4.037-9,9-9s9,4.037,9,9c0,2.018-1.35,4.446-2.656,6.795
		C349.76,58.892,349.166,59.97,348.672,61.044z"/>
	<path fill="#F9662D" d="M344,45.044c-3.309,0-6,2.691-6,6c0,0.276,0.225,0.5,0.5,0.5s0.5-0.224,0.5-0.5c0-2.757,2.243-5,5-5
		c0.275,0,0.5-0.224,0.5-0.5S344.275,45.044,344,45.044z"/>
</g>
<line fill="none" stroke="#F9662D" stroke-width="2" stroke-miterlimit="10" x1="344" y1="28.156" x2="344" y2="35.646"/>
<line fill="none" stroke="#F9662D" stroke-width="2" stroke-miterlimit="10" x1="329.054" y1="33.098" x2="333.945" y2="38.769"/>
<line fill="none" stroke="#F9662D" stroke-width="2" stroke-miterlimit="10" x1="322.432" y1="45.579" x2="329.852" y2="46.597"/>
<line fill="none" stroke="#F9662D" stroke-width="2" stroke-miterlimit="10" x1="359.892" y1="33.098" x2="355" y2="38.769"/>
<line fill="none" stroke="#F9662D" stroke-width="2" stroke-miterlimit="10" x1="366.514" y1="45.579" x2="359.094" y2="46.597"/>
<g id="settings_2_">
	<path fill="#F9662D" d="M428.09,39.84v-3.021c0-1.654-1.346-3-3-3s-3,1.346-3,3v3.021c-1.208,0.915-2,2.348-2,3.979
		c0,1.631,0.792,3.064,2,3.977v15.023c0,1.654,1.346,3,3,3s3-1.346,3-3V47.796c1.208-0.912,2-2.346,2-3.977
		C430.09,42.188,429.298,40.755,428.09,39.84z M424.09,36.819c0-0.553,0.447-1,1-1s1,0.447,1,1v2.1c-0.323-0.065-0.657-0.1-1-0.1
		s-0.677,0.035-1,0.1V36.819z M426.09,62.819c0,0.553-0.447,1-1,1s-1-0.447-1-1V48.717c0.323,0.067,0.657,0.102,1,0.102
		s0.677-0.035,1-0.102V62.819z M427.955,44.659c-0.016,0.053-0.03,0.105-0.049,0.158c-0.099,0.264-0.218,0.514-0.379,0.736
		c-0.004,0.006-0.013,0.01-0.017,0.016c-0.174,0.238-0.381,0.449-0.613,0.627c-0.006,0.004-0.01,0.006-0.013,0.008
		c-0.241,0.182-0.51,0.328-0.799,0.43c-0.313,0.113-0.646,0.185-0.999,0.185c-0.353,0-0.686-0.072-1-0.186
		c-0.289-0.102-0.559-0.248-0.799-0.43c-0.003-0.002-0.006-0.004-0.01-0.008c-0.235-0.178-0.442-0.389-0.616-0.627
		c-0.005-0.006-0.011-0.01-0.017-0.016c-0.158-0.223-0.281-0.473-0.378-0.736c-0.02-0.053-0.03-0.105-0.05-0.158
		c-0.079-0.267-0.134-0.546-0.134-0.839c0-0.295,0.055-0.574,0.135-0.842c0.019-0.053,0.03-0.105,0.05-0.156
		c0.096-0.264,0.219-0.514,0.381-0.738c0.004-0.006,0.01-0.01,0.014-0.016c0.174-0.236,0.381-0.449,0.615-0.627
		c0.004-0.002,0.008-0.006,0.011-0.008c0.239-0.179,0.509-0.326,0.798-0.429c0.314-0.112,0.646-0.184,1-0.184
		c0.354,0,0.688,0.072,1,0.184c0.289,0.104,0.559,0.25,0.799,0.43c0.003,0.002,0.006,0.006,0.012,0.008
		c0.233,0.178,0.44,0.391,0.614,0.627c0.005,0.006,0.013,0.01,0.018,0.016c0.158,0.223,0.28,0.473,0.377,0.737
		c0.019,0.051,0.032,0.103,0.049,0.156c0.08,0.268,0.135,0.547,0.135,0.842C428.09,44.112,428.035,44.391,427.955,44.659z"/>
	<path fill="#F9662D" d="M450.09,39.84v-3.021c0-1.654-1.346-3-3-3s-3,1.346-3,3v3.021c-1.209,0.915-2,2.348-2,3.979
		c0,1.631,0.791,3.064,2,3.977v15.023c0,1.654,1.346,3,3,3s3-1.346,3-3V47.796c1.207-0.912,2-2.346,2-3.977
		C452.09,42.188,451.297,40.755,450.09,39.84z M446.09,36.819c0-0.553,0.447-1,1-1s1,0.447,1,1v2.1c-0.324-0.065-0.658-0.1-1-0.1
		c-0.344,0-0.678,0.035-1,0.1V36.819z M448.09,62.819c0,0.553-0.447,1-1,1s-1-0.447-1-1V48.717c0.322,0.067,0.656,0.102,1,0.102
		c0.342,0,0.676-0.035,1-0.102V62.819z M449.955,44.659c-0.016,0.053-0.031,0.105-0.049,0.158c-0.099,0.264-0.218,0.514-0.379,0.736
		c-0.004,0.006-0.014,0.01-0.018,0.016c-0.174,0.238-0.381,0.449-0.612,0.627c-0.006,0.004-0.011,0.006-0.013,0.008
		c-0.241,0.182-0.51,0.328-0.799,0.43c-0.313,0.113-0.646,0.185-0.999,0.185c-0.353,0-0.686-0.072-1-0.186
		c-0.289-0.102-0.559-0.248-0.799-0.43c-0.004-0.002-0.006-0.004-0.01-0.008c-0.236-0.178-0.443-0.389-0.617-0.627
		c-0.004-0.006-0.01-0.01-0.016-0.016c-0.158-0.223-0.281-0.473-0.378-0.736c-0.021-0.053-0.03-0.105-0.05-0.158
		c-0.079-0.267-0.134-0.546-0.134-0.839c0-0.295,0.055-0.574,0.135-0.842c0.019-0.053,0.029-0.105,0.049-0.156
		c0.097-0.264,0.22-0.514,0.38-0.738c0.004-0.006,0.01-0.01,0.015-0.016c0.174-0.236,0.381-0.449,0.616-0.627
		c0.004-0.002,0.007-0.006,0.011-0.008c0.239-0.18,0.51-0.326,0.799-0.43c0.313-0.111,0.646-0.183,0.999-0.183
		c0.354,0,0.688,0.072,1,0.184c0.289,0.104,0.557,0.25,0.799,0.43c0.002,0.002,0.006,0.006,0.013,0.008
		c0.231,0.178,0.438,0.391,0.612,0.627c0.004,0.006,0.013,0.01,0.017,0.016c0.161,0.225,0.28,0.475,0.379,0.738
		c0.019,0.051,0.032,0.104,0.05,0.156c0.079,0.267,0.134,0.546,0.134,0.841C450.09,44.112,450.035,44.391,449.955,44.659z"/>
	<path fill="#F9662D" d="M439.09,51.84V36.819c0-1.654-1.346-3-3-3s-3,1.346-3,3V51.84c-1.208,0.914-2,2.348-2,3.979
		c0,1.631,0.792,3.064,2,3.977v3.023c0,1.654,1.346,3,3,3s3-1.346,3-3v-3.023c1.207-0.912,2-2.346,2-3.977
		C441.09,54.188,440.297,52.754,439.09,51.84z M435.09,36.819c0-0.553,0.447-1,1-1s1,0.447,1,1v14.1c-0.324-0.063-0.658-0.1-1-0.1
		c-0.343,0-0.677,0.035-1,0.1V36.819z M437.09,62.819c0,0.553-0.447,1-1,1s-1-0.447-1-1v-2.102c0.323,0.066,0.657,0.102,1,0.102
		c0.342,0,0.676-0.035,1-0.102V62.819z M438.955,56.659c-0.016,0.053-0.031,0.105-0.049,0.158c-0.099,0.264-0.218,0.514-0.379,0.736
		c-0.004,0.006-0.014,0.01-0.018,0.016c-0.174,0.238-0.381,0.449-0.612,0.627c-0.006,0.004-0.011,0.006-0.013,0.008
		c-0.241,0.182-0.51,0.328-0.799,0.43c-0.313,0.113-0.646,0.186-0.999,0.186c-0.353,0-0.686-0.072-1-0.186
		c-0.289-0.103-0.559-0.248-0.799-0.431c-0.003-0.002-0.006-0.004-0.01-0.008c-0.235-0.179-0.442-0.39-0.616-0.627
		c-0.005-0.006-0.011-0.011-0.017-0.017c-0.158-0.223-0.281-0.473-0.378-0.735c-0.02-0.054-0.03-0.104-0.05-0.158
		c-0.079-0.267-0.134-0.546-0.134-0.839c0-0.295,0.055-0.574,0.135-0.842c0.019-0.053,0.03-0.105,0.049-0.156
		c0.099-0.264,0.22-0.514,0.382-0.738c0.004-0.006,0.01-0.01,0.014-0.016c0.174-0.236,0.381-0.449,0.615-0.627
		c0.004-0.002,0.008-0.006,0.011-0.008c0.241-0.18,0.51-0.326,0.799-0.43c0.313-0.111,0.646-0.184,0.999-0.184
		c0.354,0,0.688,0.072,1,0.184c0.289,0.104,0.557,0.25,0.799,0.43c0.002,0.003,0.006,0.007,0.012,0.009
		c0.232,0.178,0.439,0.392,0.613,0.627c0.004,0.006,0.012,0.01,0.017,0.017c0.161,0.225,0.28,0.475,0.379,0.737
		c0.019,0.052,0.032,0.104,0.05,0.156c0.079,0.267,0.134,0.546,0.134,0.841C439.09,56.112,439.035,56.391,438.955,56.659z"/>
</g>
<g id="photo_1_">
	<path fill="#F9662D" d="M613.544-56.718h-22c-2.209,0-4,1.791-4,4v24c0,2.209,1.791,4,4,4h22c2.209,0,4-1.791,4-4v-24
		C617.544-54.927,615.753-56.718,613.544-56.718z M615.544-28.718c0,1.102-0.898,2-2,2h-22c-1.104,0-2-0.898-2-2v-24
		c0-1.103,0.896-2,2-2h22c1.102,0,2,0.897,2,2V-28.718z"/>
	<path fill="#F9662D" d="M612.544-52.718h-20c-0.553,0-1,0.447-1,1v18c0,0.553,0.447,1,1,1h20c0.553,0,1-0.447,1-1v-18
		C613.544-52.271,613.097-52.718,612.544-52.718z M612.544-51.718v13.869l-3.25-3.53c-0.191-0.216-0.463-0.339-0.75-0.339
		s-0.561,0.123-0.75,0.339l-2.604,2.95l-7.896-8.95c-0.189-0.216-0.463-0.339-0.75-0.339s-0.561,0.123-0.75,0.339l-3.25,3.748
		v-8.087H612.544z M592.544-42.118l4-4.6l8.066,9.143l0.58,0.658l2.762,3.199h-15.408V-42.118z M609.284-33.718l-3.428-3.955
		l2.688-3.045l4,4.379v2.621H609.284z"/>
	<path fill="#F9662D" d="M606.544-43.718c1.656,0,3-1.343,3-3c0-1.657-1.344-3-3-3c-1.658,0-3,1.343-3,3
		C603.544-45.061,604.886-43.718,606.544-43.718z M606.544-48.718c1.102,0,2,0.897,2,2c0,1.104-0.898,2-2,2c-1.104,0-2-0.896-2-2
		C604.544-47.821,605.44-48.718,606.544-48.718z"/>
</g>
<g id="like">
	<path fill="#F9662D" d="M548.692,55.138c0-0.288-0.006-0.369-0.017-0.5l-0.012-0.209c-0.029-0.74-0.287-1.54-0.854-2.176
		c0.382-0.704,0.523-1.55,0.392-2.372c-0.217-1.327-0.732-2.196-1.336-2.767c0.262-0.641,0.375-1.535-0.002-2.727
		c-0.228-0.726-0.57-1.842-1.646-2.58c0.17-0.656,0.117-1.303-0.021-1.76c-0.188-0.607-0.418-1.057-0.431-1.076
		c-0.715-1.287-1.916-1.928-3.582-1.928h-5.467c-2.777,0-5.465,0.572-5.973,0.688c-2.369,0.545-3.479,0.811-4.055,0.953
		c-0.021,0.006-0.027,0.008-0.049,0.012c-0.095,0.025-0.173,0.045-0.236,0.063c-0.017,0.002-0.035,0.008-0.047,0.012
		c-0.482-1.008-1.479-1.727-2.668-1.727h-3c-1.654,0-3,1.346-3,3v16c0,1.654,1.346,3,3,3h3c0.744,0,1.475-0.347,2-0.8l-0.056,0.045
		c0.104,0.045,0.81,0.392,1.056,0.522c3.354,1.764,3.979,5.242,4,7.256c0.021,1.642,1.364,2.977,3,2.977
		c2.313,0,4.926-3.16,4.926-6.748c0-1.502-0.047-2.348-0.25-3.286c4.299-0.114,7.237-0.11,8.487-0.438
		C547.817,58.012,548.692,56.401,548.692,55.138z M523.692,56.044c0,0.553-0.447,1-1,1h-3c-0.556,0-1-0.447-1-1v-16
		c0-0.553,0.444-1,1-1h3c0.553,0,1,0.447,1,1V56.044z M546.692,55.138c0,0.312-0.097,1.218-1.188,1.531
		c-0.883,0.231-0.813,0.375-10.813,0.375c0.83,2.471,0.926,2.881,0.926,5.252c0,2.626-1.869,4.748-2.926,4.748
		c-0.625,0-0.994-0.521-1-1c-0.041-3.406-1.435-7.554-6-9.446c-0.063-0.025-0.146-0.051-0.206-0.075
		c-0.495-0.149-0.794-0.573-0.794-1.042l0.007-13.812c0-0.738,0.847-0.881,0.847-0.881c0.26-0.074,0.479-0.148,4.633-1.105
		c0.07-0.016,2.795-0.639,5.541-0.639h5.47c1.028,0,1.518,0.328,1.817,0.873c0.006,0.014,0.153,0.314,0.278,0.721
		c0.114,0.371,0.063,1.406-1.03,1.406c-0.875,0-1.567,0-1.567,0c-0.275,0-0.5,0.225-0.5,0.5c0,0.277,0.225,0.5,0.5,0.5
		c0,0,0.911,0,1.633,0c2.127,0,2.319,0.936,2.641,1.945c0.242,0.768,0.393,2.055-1.297,2.055c-0.781,0-1.969,0-1.969,0
		c-0.277,0-0.5,0.225-0.5,0.5c0,0.277,0.223,0.5,0.5,0.5c0,0,0.688,0,2.375,0c1.687,0,2.039,1.41,2.163,2.156
		c0.097,0.6-0.104,1.844-1.604,1.844s-1.938,0-1.938,0c-0.277,0-0.5,0.225-0.5,0.5c0,0.276,0.223,0.5,0.5,0.5c0,0,0.5,0,2,0
		c1.75,0,1.957,0.971,1.977,1.465C546.683,54.845,546.692,54.795,546.692,55.138z"/>
	<path fill="#F9662D" d="M522.692,41.544c0-0.828-0.672-1.5-1.5-1.5s-1.5,0.672-1.5,1.5s0.672,1.5,1.5,1.5
		S522.692,42.372,522.692,41.544z M521.692,41.544c0,0.275-0.228,0.5-0.5,0.5c-0.275,0-0.5-0.225-0.5-0.5s0.225-0.5,0.5-0.5
		C521.467,41.044,521.692,41.269,521.692,41.544z"/>
</g>
<g id="search_1_">
	<path fill="#FFFFFF" d="M36.202,15.028c-8.036,0-14.552,6.516-14.552,14.552c0,2.457,0.614,4.77,1.691,6.801L13.223,46.497
		l0.009,0.007c-0.791,0.777-1.283,1.854-1.283,3.05c0,2.364,1.916,4.28,4.28,4.28c1.194,0,2.272-0.493,3.05-1.284l-0.002-0.002
		l10.115-10.113c2.033,1.08,4.349,1.697,6.812,1.697c8.037,0,14.552-6.516,14.552-14.552C50.754,21.543,44.239,15.028,36.202,15.028
		z M17.764,51.035c-0.391,0.406-0.932,0.659-1.535,0.659c-1.182,0-2.14-0.957-2.14-2.139c0-0.604,0.254-1.144,0.658-1.536
		l-0.011-0.01l9.781-9.781c0.855,1.152,1.875,2.172,3.024,3.029L17.764,51.035z M36.202,41.708c-6.696,0-12.126-5.431-12.126-12.127
		s5.43-12.126,12.126-12.126c6.696,0,12.126,5.43,12.126,12.126C48.329,36.277,42.898,41.708,36.202,41.708z"/>
	<path fill="#FFFFFF" d="M36.202,21.091c-4.689,0-8.488,3.801-8.488,8.489c0,0.335,0.271,0.606,0.606,0.606s0.606-0.271,0.606-0.606
		c0-4.018,3.257-7.276,7.276-7.276c0.334,0,0.606-0.271,0.606-0.605C36.809,21.363,36.536,21.091,36.202,21.091z"/>
</g>
<g>
	<g>
		<line fill="none" stroke="#FFFFFF" stroke-width="2" stroke-miterlimit="10" x1="243.093" y1="5.13" x2="243.093" y2="12.62"/>
		<line fill="none" stroke="#FFFFFF" stroke-width="2" stroke-miterlimit="10" x1="228.146" y1="10.072" x2="233.038" y2="15.743"/>
		<line fill="none" stroke="#FFFFFF" stroke-width="2" stroke-miterlimit="10" x1="221.524" y1="22.553" x2="228.944" y2="23.571"/>
		<line fill="none" stroke="#FFFFFF" stroke-width="2" stroke-miterlimit="10" x1="258.984" y1="10.072" x2="254.093" y2="15.743"/>
		<line fill="none" stroke="#FFFFFF" stroke-width="2" stroke-miterlimit="10" x1="265.606" y1="22.553" x2="258.187" y2="23.571"/>
	</g>
	<path fill="#FFFFFF" d="M257.612,45.244c-0.187-0.123-3.577-2.347-8.621-3.439c1.851-2.344,3.038-5.495,3.544-7.594
		c0.7-2.908,0.428-8.598-2.365-12.144c-1.633-2.072-3.916-3.166-6.605-3.166s-4.973,1.095-6.604,3.167
		c-2.793,3.545-3.064,9.235-2.364,12.143c0.505,2.098,1.692,5.25,3.543,7.594c-5.044,1.092-8.434,3.316-8.62,3.439
		c-0.681,0.454-0.986,1.303-0.748,2.084c0.236,0.786,0.96,1.323,1.779,1.323h26.032c0.818,0,1.541-0.537,1.778-1.321
		C258.598,46.544,258.292,45.697,257.612,45.244z M236.278,28.892c0.507-3.978,2.786-8.133,7.286-8.133s6.779,4.156,7.287,8.134
		c0.551,4.142-0.729,8.478-3.32,11.76l-0.303,0.386c-2.217,2.547-5.109,2.547-7.325,0l-0.304-0.386
		C237.01,37.373,235.725,33.032,236.278,28.892z M230.548,46.791c0.128-0.086,3.278-2.15,7.982-3.168l2.309-0.498
		c0.825,0.541,1.729,0.879,2.724,0.879c0.996,0,1.899-0.338,2.724-0.879l2.31,0.498c4.667,1.01,7.806,3.053,7.981,3.168H230.548z"/>
</g>
<g>
	<path fill="#F9662D" d="M50.745,144.465c-0.153-0.102-2.929-1.92-7.059-2.815c1.515-1.919,2.488-4.498,2.902-6.218
		c0.573-2.381,0.35-7.039-1.937-9.943c-1.337-1.695-3.207-2.592-5.408-2.592c-2.201,0-4.072,0.896-5.407,2.594
		c-2.287,2.902-2.509,7.563-1.936,9.941c0.414,1.718,1.385,4.299,2.901,6.218c-4.13,0.894-6.906,2.716-7.058,2.815
		c-0.558,0.373-0.807,1.065-0.612,1.707c0.193,0.645,0.786,1.084,1.457,1.084h21.314c0.67,0,1.262-0.439,1.456-1.082
		C51.552,145.531,51.302,144.836,50.745,144.465z M33.277,131.079c0.416-3.258,2.281-6.658,5.966-6.658
		c3.684,0,5.55,3.401,5.966,6.66c0.451,3.392-0.597,6.939-2.719,9.627l-0.248,0.315c-1.815,2.085-4.183,2.085-5.998,0l-0.249-0.315
		C33.876,138.021,32.824,134.468,33.277,131.079z M28.585,145.733c0.104-0.07,2.684-1.761,6.535-2.594l1.891-0.408
		c0.676,0.443,1.416,0.721,2.23,0.721c0.815,0,1.555-0.277,2.23-0.721l1.891,0.408c3.821,0.826,6.391,2.499,6.535,2.594H28.585z"/>
</g>
<path id="megaphone" fill="#FFFFFF" d="M143.129,14.305c-2.342,0-4.183,1.609-5.505,4.092l-0.025-0.014
	c-1.918,3.758-4.775,6.191-7.905,6.191h-0.756h-5.029h-4.742c-2.56,0-4.564,2.507-4.564,5.706c0,3.201,2.004,5.706,4.564,5.706
	c1.258,0.005,2.276,1.023,2.276,2.282v10.27c0,1.261,1.023,2.282,2.282,2.282h4.564c1.26,0,2.282-1.021,2.282-2.282v-1.142
	c0-1.141-1.141-1.651-1.141-2.282v-7.987c0-0.027,0.019-0.044,0.021-0.071c0.011-0.163,0.056-0.313,0.127-0.45
	c0.021-0.039,0.042-0.067,0.067-0.101c0.092-0.136,0.207-0.248,0.347-0.335c0.007-0.004,0.009-0.011,0.016-0.015
	c0.004,0,0.008-0.005,0.013-0.005c0.09-0.051,0.2-0.063,0.303-0.091c2.88,0.305,5.488,2.63,7.277,6.131l0.029-0.015
	c1.321,2.475,3.158,4.08,5.498,4.08c5.244,0,7.987-8.037,7.987-15.975C151.115,22.342,148.373,14.305,143.129,14.305z
	 M137.423,30.279c0-1.183,0.069-2.327,0.187-3.423h3.236c1.259,0,2.282,1.534,2.282,3.423c0,1.893-1.023,3.423-2.282,3.423h-3.236
	C137.493,32.606,137.423,31.465,137.423,30.279z M116.884,30.279c0-1.889,1.023-3.423,2.283-3.423h4.742h0.963h2.298
	c-0.708,0.832-1.157,2.04-1.157,3.423c0,1.386,0.45,2.594,1.157,3.423h-2.298h-5.705C117.907,33.703,116.884,32.172,116.884,30.279z
	 M128.289,48.537h-4.564v-10.27c0-0.832-0.222-1.609-0.612-2.282h0.796v0.013h3.433c-0.122,0.354-0.193,0.731-0.193,1.128v7.987
	c0,1.099,0.614,1.83,0.98,2.267c0.05,0.06,0.11,0.123,0.161,0.189L128.289,48.537L128.289,48.537z M129.694,33.716h-0.258v-0.014
	c-1.26,0-2.282-1.531-2.282-3.423c0-1.889,1.022-3.423,2.282-3.423h0.258c2.152,0,4.167-0.847,5.94-2.303
	c-0.326,1.837-0.493,3.783-0.493,5.726c0,1.951,0.167,3.903,0.495,5.741C133.862,34.563,131.846,33.716,129.694,33.716z
	 M143.129,43.973c-2.302,0-4.279-3.276-5.182-7.988h2.899c2.559,0,4.564-2.505,4.564-5.706c0-3.199-2.005-5.706-4.564-5.706h-2.899
	c0.902-4.709,2.879-7.987,5.182-7.987c3.151,0,5.705,6.131,5.705,13.693C148.834,37.842,146.28,43.973,143.129,43.973z"/>
<g id="banknote">
	<path fill="#F9662D" d="M281.288,128.288L266.302,113.3c-0.744-0.743-1.821-1.042-2.841-0.79c-0.539,0.132-1.02,0.41-1.401,0.79
		c-0.341,0.34-0.595,0.761-0.743,1.233c-0.677,2.201-1.851,4.113-3.589,5.849c-2.319,2.318-5.342,4.074-8.538,5.932
		c-3.393,1.967-6.897,4.004-9.771,6.875c-2.441,2.445-4.104,5.164-5.078,8.317c-0.328,1.064-0.042,2.219,0.743,3.006l14.986,14.986
		c0.744,0.744,1.821,1.043,2.842,0.791c0.538-0.137,1.019-0.412,1.4-0.791c0.34-0.342,0.596-0.764,0.743-1.232
		c0.681-2.203,1.854-4.115,3.593-5.85c2.319-2.318,5.337-4.07,8.537-5.93c3.391-1.97,6.897-4.008,9.769-6.878
		c2.441-2.44,4.104-5.165,5.078-8.319C282.359,130.227,282.071,129.069,281.288,128.288z M252.192,157.379
		c-4.963-4.963-10.022-10.023-14.985-14.984c4.258-13.79,22.718-13.188,26.974-26.975c4.964,4.961,10.025,10.021,14.989,14.984
		C274.91,144.191,256.45,143.592,252.192,157.379z"/>
	<path fill="#F9662D" d="M263.526,134.75c-0.489-0.408-0.98-0.688-1.476-0.826c-0.491-0.139-0.983-0.192-1.48-0.156
		c-0.492,0.037-0.995,0.148-1.499,0.344c-0.503,0.195-1.009,0.408-1.519,0.656c-0.805-0.928-1.609-1.839-2.415-2.688
		c0.363-0.328,0.714-0.494,1.054-0.508c0.339-0.016,0.666,0.021,0.976,0.1c0.317,0.08,0.606,0.146,0.873,0.201
		c0.269,0.053,0.503-0.009,0.709-0.18c0.216-0.188,0.336-0.432,0.354-0.725c0.015-0.295-0.097-0.582-0.344-0.862
		c-0.315-0.36-0.696-0.583-1.153-0.664c-0.451-0.078-0.913-0.073-1.394,0.031c-0.473,0.106-0.924,0.286-1.353,0.539
		c-0.426,0.251-0.77,0.509-1.024,0.759c-0.098-0.09-0.196-0.186-0.293-0.271c-0.107-0.104-0.243-0.152-0.404-0.149
		c-0.163,0-0.298,0.069-0.41,0.198c-0.107,0.127-0.157,0.271-0.137,0.428c0.015,0.16,0.079,0.281,0.191,0.377
		c0.097,0.083,0.194,0.165,0.291,0.249c-0.383,0.463-0.699,0.976-0.948,1.515c-0.252,0.541-0.401,1.076-0.458,1.598
		c-0.059,0.523-0.003,1.005,0.157,1.449c0.161,0.447,0.458,0.828,0.891,1.188c0.706,0.584,1.536,0.833,2.5,0.776
		c0.961-0.061,1.996-0.347,3.109-0.941c0.884,1.021,1.771,2.038,2.658,2.979c-0.375,0.317-0.703,0.498-0.992,0.558
		c-0.29,0.063-0.547,0.057-0.782-0.015c-0.234-0.073-0.451-0.18-0.649-0.313c-0.199-0.139-0.396-0.256-0.592-0.354
		c-0.193-0.097-0.393-0.147-0.596-0.15c-0.205-0.002-0.422,0.096-0.662,0.301c-0.246,0.214-0.369,0.462-0.369,0.743
		c0,0.276,0.129,0.563,0.38,0.851c0.254,0.282,0.586,0.525,0.987,0.719c0.399,0.188,0.853,0.311,1.35,0.342
		c0.498,0.035,1.023-0.04,1.575-0.246c0.556-0.202,1.106-0.569,1.649-1.112c0.261,0.255,0.524,0.498,0.786,0.731
		c0.112,0.098,0.246,0.145,0.408,0.132c0.158-0.006,0.295-0.079,0.406-0.21c0.111-0.137,0.155-0.286,0.141-0.439
		c-0.016-0.156-0.08-0.276-0.188-0.365c-0.265-0.211-0.528-0.433-0.791-0.666c0.448-0.551,0.809-1.131,1.075-1.705
		c0.266-0.576,0.424-1.133,0.477-1.646c0.052-0.521-0.009-0.987-0.179-1.411C264.25,135.475,263.953,135.107,263.526,134.75z
		 M255.147,135.768c-0.425,0.016-0.795-0.124-1.119-0.436c-0.138-0.136-0.234-0.295-0.293-0.484
		c-0.061-0.189-0.082-0.398-0.057-0.625c0.02-0.227,0.088-0.462,0.205-0.697c0.112-0.236,0.276-0.474,0.486-0.704
		c0.759,0.757,1.518,1.585,2.277,2.441C256.071,135.581,255.57,135.749,255.147,135.768z M262.214,138.768
		c-0.134,0.248-0.289,0.471-0.47,0.665c-0.841-0.851-1.68-1.783-2.519-2.739c0.215-0.095,0.439-0.197,0.682-0.296
		c0.243-0.103,0.486-0.169,0.729-0.213c0.249-0.036,0.495-0.028,0.74,0.03c0.243,0.062,0.474,0.191,0.688,0.402
		c0.21,0.213,0.345,0.43,0.397,0.663c0.059,0.241,0.062,0.483,0.022,0.733C262.441,138.266,262.352,138.516,262.214,138.768z"/>
	<path fill="#F9662D" d="M256.264,145.661h-0.003c-0.937,0.721-1.851,1.479-2.697,2.325c-0.813,0.816-1.55,1.673-2.189,2.548
		l-1.025,1.399l0.002,0.002c-0.187,0.293-0.156,0.687,0.099,0.939c0.293,0.293,0.771,0.293,1.064,0
		c0.045-0.047,0.081-0.098,0.111-0.148l0.958-1.313c0.593-0.813,1.279-1.609,2.039-2.369c0.842-0.838,1.621-1.488,2.568-2.209
		l-0.003-0.002c0.028-0.021,0.054-0.039,0.076-0.063c0.295-0.293,0.295-0.771,0-1.063
		C256.994,145.435,256.56,145.422,256.264,145.661z"/>
	<path fill="#F9662D" d="M261.75,123.983c-0.783,0.784-1.633,1.49-2.514,2.164c-0.062,0.033-0.123,0.073-0.175,0.129
		c-0.296,0.294-0.296,0.776,0,1.07c0.285,0.288,0.749,0.295,1.047,0.021l0.005,0.002c0.937-0.721,1.849-1.479,2.696-2.324
		c0.813-0.815,1.548-1.67,2.189-2.545l1.026-1.406l-0.003-0.002c0.254-0.299,0.243-0.743-0.039-1.026
		c-0.295-0.296-0.772-0.296-1.068,0c-0.056,0.056-0.097,0.12-0.131,0.185l-0.996,1.362
		C263.193,122.429,262.509,123.225,261.75,123.983z"/>
</g>
<circle fill="none" stroke="#F9662D" stroke-width="2.5" stroke-miterlimit="10" cx="39.244" cy="135.598" r="27.615"/>
<line fill="none" stroke="#F9662D" stroke-width="2.5" stroke-miterlimit="10" x1="39.244" y1="152.822" x2="39.244" y2="163.676"/>
<line fill="none" stroke="#F9662D" stroke-width="2.5" stroke-miterlimit="10" x1="39.244" y1="107.579" x2="39.244" y2="118.432"/>
<line fill="none" stroke="#F9662D" stroke-width="2.5" stroke-miterlimit="10" x1="56.438" y1="135.627" x2="67.292" y2="135.627"/>
<line fill="none" stroke="#F9662D" stroke-width="2.5" stroke-miterlimit="10" x1="11.195" y1="135.627" x2="22.049" y2="135.627"/>
<path id="paperplane" fill="#F9662D" d="M366.077,111.63c-0.236-0.153-0.507-0.229-0.773-0.229c-0.272,0-0.551,0.079-0.789,0.239
	l-42.718,28.478c-0.438,0.293-0.682,0.807-0.625,1.332c0.055,0.525,0.396,0.979,0.888,1.174l11.143,4.459l5.237,9.166
	c0.251,0.44,0.717,0.711,1.22,0.717c0.006,0,0.011,0,0.017,0c0.5,0,0.964-0.264,1.222-0.688l2.957-4.932l13.806,5.521
	c0.17,0.066,0.348,0.104,0.528,0.104c0.24,0,0.479-0.064,0.695-0.186c0.376-0.213,0.635-0.582,0.706-1.008l7.12-42.717
	C366.8,112.5,366.552,111.939,366.077,111.63z M325.629,140.987l32.997-22l-23.99,25.684c-0.127-0.074-0.237-0.176-0.38-0.23
	L325.629,140.987z M335.671,145.67c-0.003-0.006-0.007-0.008-0.01-0.015l26.973-28.871l-22.993,35.829L335.671,145.67z
	 M357.068,153.563l-12.161-4.863c-0.288-0.112-0.588-0.151-0.888-0.17l18.728-29.03L357.068,153.563z"/>
<g id="clock">
	<circle fill="#F9662D" cx="619.585" cy="127.584" r="1.459"/>
	<circle fill="#F9662D" cx="619.585" cy="145.089" r="1.458"/>
	<circle fill="#F9662D" cx="610.834" cy="136.337" r="1.458"/>
	<circle fill="#F9662D" cx="628.337" cy="136.337" r="1.458"/>
	<circle fill="#F9662D" cx="613.396" cy="142.524" r="1.458"/>
	<circle fill="#F9662D" cx="613.396" cy="130.147" r="1.458"/>
	<circle fill="#F9662D" cx="625.772" cy="142.524" r="1.458"/>
	<path fill="#F9662D" d="M634.171,133.42c-0.103,0-0.188,0.048-0.288,0.057c-0.507-2.544-1.706-4.821-3.35-6.7l-2.094-11.394
		c-0.26-1.381-1.462-2.383-2.869-2.383h-11.668c-1.404,0-2.609,1.003-2.869,2.385l-2.042,11.01c-2.45,2.605-3.991,6.079-3.991,9.941
		c0,3.767,1.479,7.152,3.823,9.74l2.06,11.213c0.256,1.381,1.463,2.385,2.868,2.385h11.669c1.404,0,2.609-1.004,2.868-2.385
		l2.077-11.205c1.731-1.914,2.994-4.258,3.518-6.895c0.103,0.016,0.188,0.063,0.288,0.063c1.609,0,2.917-1.309,2.917-2.918
		S635.78,133.42,634.171,133.42z M613.902,115.917h11.668l1.459,7.858c-2.154-1.254-4.621-2.023-7.293-2.023
		c-2.669,0-5.141,0.77-7.293,2.023L613.902,115.917z M625.42,156.756h-11.669l-1.458-7.855c2.153,1.25,4.62,2.021,7.292,2.021
		c2.671,0,5.14-0.771,7.293-2.021L625.42,156.756z M619.585,148.004c-6.434,0-11.668-5.234-11.668-11.668
		c0-6.437,5.234-11.668,11.668-11.668c6.436,0,11.669,5.231,11.669,11.668C631.254,142.77,626.018,148.004,619.585,148.004z"/>
	<path fill="#F9662D" d="M626.793,129.083c-0.177-0.178-0.462-0.189-0.661-0.03l-7.573,6.25c-0.275,0.278-0.432,0.649-0.432,1.049
		c0,0.383,0.148,0.746,0.422,1.019c0.273,0.271,0.638,0.424,1.031,0.428c0.364-0.004,0.743-0.142,1.02-0.405l2.695-3.244
		l3.537-4.407C626.986,129.543,626.969,129.258,626.793,129.083z"/>
</g>
<line fill="none" stroke="#F9662D" stroke-width="3" stroke-linecap="square" stroke-linejoin="round" stroke-miterlimit="10" x1="358.501" y1="209.665" x2="364.491" y2="215.652"/>
<line fill="none" stroke="#F9662D" stroke-width="3" stroke-linecap="square" stroke-linejoin="round" stroke-miterlimit="10" x1="358.501" y1="215.652" x2="364.491" y2="209.665"/>
<path fill="none" stroke="#F9662D" stroke-width="3" stroke-miterlimit="10" d="M621.043,237.141
	c-27.975-15.016-21.104-44.478-21.104-44.478l21.268-8.755l20.941,8.755C642.148,192.664,649.021,222.125,621.043,237.141z"/>
<path fill="#F9662D" d="M633.17,217.246c-0.162-0.105-3.088-2.025-7.443-2.969c1.6-2.024,2.623-4.743,3.061-6.557
	c0.604-2.511,0.37-7.423-2.041-10.484c-1.409-1.787-3.381-2.731-5.702-2.731s-4.293,0.945-5.701,2.733
	c-2.411,3.061-2.645,7.973-2.041,10.482c0.437,1.811,1.461,4.531,3.06,6.557c-4.354,0.941-7.28,2.861-7.44,2.969
	c-0.589,0.393-0.851,1.124-0.646,1.799c0.202,0.68,0.827,1.143,1.534,1.143h22.474c0.706,0,1.331-0.463,1.534-1.141
	C634.021,218.368,633.756,217.637,633.17,217.246z M614.752,203.129c0.438-3.436,2.406-7.021,6.29-7.021
	c3.886,0,5.854,3.588,6.291,7.021c0.476,3.576-0.629,7.318-2.866,10.152l-0.261,0.334c-1.914,2.197-4.411,2.197-6.324,0
	l-0.262-0.334C615.384,210.45,614.275,206.703,614.752,203.129z M609.807,218.581c0.109-0.073,2.829-1.854,6.891-2.733l1.993-0.431
	c0.713,0.468,1.491,0.758,2.352,0.758s1.64-0.29,2.354-0.758l1.992,0.431c4.029,0.871,6.739,2.635,6.892,2.733H609.807z"/>
<path fill="#F9662D" d="M467.106,282.42c0,1.796-1.459,3.253-3.253,3.253c-1.799,0-3.253-1.457-3.253-3.253
	c0-1.793,1.454-6.504,3.253-6.504C465.647,275.917,467.106,280.627,467.106,282.42z M462.228,258.029v14.636
	c0,0.897,0.729,1.626,1.628,1.626c0.896,0,1.626-0.729,1.626-1.626v-14.636c0-0.899-0.729-1.627-1.626-1.627
	C462.955,256.402,462.228,257.129,462.228,258.029z M463.323,254.652l-4.349,1.004v13.757c0,4.315-4.939,8.13-17.888,8.13
	s-17.888-3.813-17.888-8.13v-13.757l-4.352-1.004c-2.225-0.514-3.779-2.469-3.779-4.754c0-2.287,1.556-4.242,3.781-4.756
	l21.14-4.879c0.378-0.084,0.737-0.123,1.098-0.123s0.721,0.039,1.075,0.118l21.16,4.884c2.227,0.514,3.783,2.469,3.783,4.756
	C467.105,252.184,465.55,254.139,463.323,254.652z M455.723,256.406l-13.539,3.125c-0.374,0.084-0.735,0.125-1.096,0.125
	s-0.722-0.041-1.077-0.12l-13.559-3.13v13.007c0,1.797,4.879,4.878,14.636,4.878s14.635-3.081,14.635-4.878V256.406z
	 M462.593,251.482c0.737-0.172,1.262-0.828,1.262-1.584c0-0.76-0.523-1.416-1.262-1.588l-21.139-4.877l-0.366-0.039l-0.366,0.039
	l-21.14,4.877c-0.739,0.172-1.26,0.828-1.26,1.588c0,0.756,0.521,1.412,1.26,1.584l21.14,4.879l0.366,0.041l0.366-0.041
	L462.593,251.482z"/>
<path id="star" fill="#F9662D" d="M376.336,253.027c-0.396-1.143-1.413-1.98-2.637-2.162l-11.908-1.77l-5.176-10.746
	c-0.545-1.129-1.71-1.851-2.991-1.851s-2.447,0.722-2.991,1.851l-5.177,10.746l-11.908,1.77c-1.223,0.182-2.239,1.021-2.634,2.162
	c-0.394,1.146-0.096,2.406,0.768,3.269l8.728,8.714l-2.024,12.084c-0.205,1.219,0.323,2.438,1.356,3.15
	c0.567,0.393,1.234,0.59,1.904,0.59c0.549,0,1.1-0.135,1.599-0.4l10.381-5.59l10.383,5.59c0.499,0.268,1.05,0.4,1.598,0.4
	c0.668,0,1.336-0.197,1.904-0.59c1.033-0.713,1.56-1.934,1.355-3.15l-2.026-12.084l8.729-8.714
	C376.432,255.432,376.727,254.171,376.336,253.027z M364.476,262.762c-0.73,0.729-1.063,1.758-0.896,2.766l2.024,12.086
	l-10.382-5.586c-0.498-0.27-1.049-0.402-1.6-0.402c-0.549,0-1.1,0.134-1.598,0.402l-10.384,5.586l2.024-12.086
	c0.169-1.008-0.163-2.037-0.896-2.766l-8.726-8.715l11.907-1.771c1.087-0.162,2.023-0.844,2.492-1.813l5.179-10.743l5.177,10.745
	c0.469,0.97,1.404,1.649,2.49,1.813l11.91,1.772L364.476,262.762z"/>
<g id="settings_1_">
	<path fill="#F9662D" d="M259.429,248.9v-3.875c0-2.123-1.727-3.85-3.849-3.85s-3.85,1.727-3.85,3.85v3.875
		c-1.55,1.175-2.566,3.016-2.566,5.106c0,2.093,1.016,3.933,2.566,5.103v19.275c0,2.123,1.728,3.85,3.85,3.85
		s3.849-1.727,3.849-3.85v-19.275c1.55-1.17,2.567-3.01,2.567-5.103C261.996,251.916,260.979,250.075,259.429,248.9z
		 M254.297,245.025c0-0.711,0.573-1.282,1.283-1.282c0.709,0,1.283,0.571,1.283,1.282v2.693c-0.415-0.082-0.843-0.128-1.283-0.128
		s-0.869,0.046-1.283,0.128V245.025z M256.863,278.385c0,0.711-0.573,1.283-1.283,1.283s-1.283-0.572-1.283-1.283V260.29
		c0.415,0.087,0.843,0.132,1.283,0.132c0.439,0,0.868-0.045,1.283-0.132V278.385z M259.256,255.084
		c-0.021,0.068-0.039,0.135-0.063,0.203c-0.122,0.338-0.278,0.658-0.485,0.943c-0.005,0.006-0.012,0.015-0.018,0.021
		c-0.223,0.305-0.489,0.575-0.791,0.805c-0.005,0.006-0.01,0.008-0.013,0.01c-0.309,0.233-0.654,0.422-1.025,0.552
		c-0.401,0.146-0.829,0.239-1.282,0.239s-0.88-0.094-1.283-0.239c-0.371-0.132-0.716-0.318-1.025-0.554
		c-0.004-0.002-0.008-0.004-0.013-0.01c-0.301-0.228-0.567-0.5-0.79-0.806c-0.006-0.007-0.014-0.013-0.018-0.021
		c-0.207-0.285-0.364-0.605-0.485-0.943c-0.024-0.066-0.042-0.135-0.063-0.202c-0.101-0.345-0.172-0.701-0.172-1.076
		c0-0.379,0.071-0.737,0.173-1.079c0.02-0.068,0.039-0.136,0.063-0.201c0.12-0.34,0.276-0.66,0.485-0.947
		c0.005-0.008,0.012-0.012,0.018-0.02c0.223-0.304,0.489-0.576,0.79-0.805c0.005-0.002,0.01-0.01,0.013-0.012
		c0.308-0.229,0.653-0.416,1.024-0.551c0.403-0.145,0.83-0.234,1.283-0.234s0.88,0.091,1.283,0.234
		c0.371,0.135,0.716,0.32,1.025,0.553c0.003,0.002,0.008,0.008,0.013,0.01c0.302,0.229,0.567,0.503,0.791,0.805
		c0.005,0.008,0.013,0.014,0.018,0.021c0.207,0.285,0.363,0.605,0.483,0.945c0.024,0.065,0.044,0.133,0.063,0.201
		c0.102,0.342,0.172,0.7,0.172,1.079C259.429,254.382,259.358,254.74,259.256,255.084z"/>
	<path fill="#F9662D" d="M287.657,248.9v-3.875c0-2.123-1.727-3.85-3.85-3.85c-2.122,0-3.849,1.727-3.849,3.85v3.875
		c-1.551,1.175-2.566,3.016-2.566,5.106c0,2.093,1.016,3.933,2.566,5.103v19.275c0,2.123,1.727,3.85,3.849,3.85
		c2.123,0,3.85-1.727,3.85-3.85v-19.275c1.548-1.17,2.566-3.01,2.566-5.103C290.223,251.916,289.205,250.075,287.657,248.9z
		 M282.525,245.025c0-0.711,0.574-1.282,1.283-1.282s1.283,0.571,1.283,1.282v2.693c-0.416-0.082-0.845-0.128-1.283-0.128
		c-0.441,0-0.869,0.046-1.283,0.128V245.025z M285.091,278.385c0,0.711-0.574,1.283-1.283,1.283s-1.283-0.572-1.283-1.283V260.29
		c0.414,0.087,0.842,0.132,1.283,0.132c0.438,0,0.867-0.045,1.283-0.132V278.385z M287.484,255.084
		c-0.02,0.068-0.04,0.135-0.063,0.203c-0.123,0.338-0.278,0.658-0.486,0.943c-0.005,0.006-0.014,0.015-0.019,0.021
		c-0.223,0.305-0.488,0.575-0.788,0.805c-0.005,0.006-0.011,0.008-0.014,0.01c-0.31,0.233-0.654,0.422-1.025,0.552
		c-0.403,0.146-0.831,0.239-1.282,0.239c-0.454,0-0.879-0.094-1.283-0.239c-0.371-0.132-0.717-0.318-1.025-0.554
		c-0.004-0.002-0.007-0.004-0.012-0.01c-0.303-0.228-0.569-0.5-0.792-0.806c-0.005-0.007-0.012-0.013-0.018-0.021
		c-0.205-0.285-0.363-0.605-0.483-0.943c-0.026-0.066-0.042-0.135-0.064-0.202c-0.101-0.345-0.171-0.701-0.171-1.076
		c0-0.379,0.07-0.737,0.173-1.079c0.021-0.068,0.038-0.136,0.063-0.201c0.12-0.34,0.278-0.66,0.483-0.947
		c0.005-0.008,0.013-0.012,0.019-0.02c0.223-0.304,0.489-0.576,0.791-0.805c0.005-0.002,0.009-0.01,0.013-0.012
		c0.307-0.23,0.654-0.416,1.025-0.551c0.402-0.145,0.828-0.234,1.282-0.234c0.451,0,0.879,0.091,1.283,0.234
		c0.371,0.135,0.714,0.32,1.025,0.553c0.002,0.002,0.007,0.008,0.013,0.01c0.301,0.229,0.566,0.503,0.79,0.805
		c0.005,0.008,0.012,0.014,0.017,0.021c0.208,0.287,0.364,0.607,0.486,0.945c0.023,0.066,0.042,0.135,0.064,0.201
		c0.102,0.342,0.172,0.7,0.172,1.079C287.657,254.382,287.587,254.74,287.484,255.084z"/>
	<path fill="#F9662D" d="M273.543,264.3v-19.274c0-2.123-1.727-3.85-3.85-3.85c-2.122,0-3.85,1.727-3.85,3.85V264.3
		c-1.549,1.171-2.566,3.013-2.566,5.104c0,2.093,1.017,3.933,2.566,5.104v3.879c0,2.122,1.728,3.85,3.85,3.85
		c2.123,0,3.85-1.727,3.85-3.85v-3.879c1.548-1.171,2.566-3.011,2.566-5.104C276.109,267.313,275.091,265.471,273.543,264.3z
		 M268.411,245.025c0-0.711,0.572-1.282,1.283-1.282c0.709,0,1.283,0.571,1.283,1.282v18.093c-0.417-0.083-0.845-0.13-1.283-0.13
		c-0.44,0-0.869,0.047-1.283,0.13V245.025z M270.977,278.385c0,0.711-0.574,1.283-1.283,1.283c-0.71,0-1.283-0.572-1.283-1.283
		v-2.695c0.414,0.084,0.843,0.131,1.283,0.131c0.438,0,0.867-0.047,1.283-0.131V278.385z M273.37,270.48
		c-0.021,0.068-0.04,0.137-0.063,0.203c-0.122,0.34-0.278,0.66-0.486,0.945c-0.005,0.008-0.014,0.014-0.019,0.02
		c-0.223,0.308-0.489,0.576-0.788,0.806c-0.005,0.006-0.011,0.008-0.014,0.012c-0.309,0.231-0.654,0.421-1.025,0.552
		c-0.402,0.146-0.831,0.236-1.282,0.236c-0.453,0-0.88-0.092-1.283-0.236c-0.371-0.134-0.717-0.318-1.025-0.556
		c-0.003-0.002-0.008-0.005-0.013-0.01c-0.301-0.228-0.567-0.499-0.79-0.806c-0.005-0.006-0.013-0.012-0.018-0.021
		c-0.207-0.284-0.363-0.604-0.485-0.944c-0.024-0.066-0.042-0.133-0.063-0.201c-0.101-0.342-0.172-0.701-0.172-1.076
		c0-0.379,0.071-0.736,0.173-1.08c0.021-0.067,0.039-0.135,0.063-0.2c0.121-0.338,0.278-0.659,0.485-0.946
		c0.005-0.008,0.012-0.014,0.018-0.021c0.223-0.303,0.489-0.576,0.791-0.805c0.004-0.002,0.01-0.008,0.013-0.01
		c0.309-0.23,0.654-0.418,1.025-0.552c0.401-0.144,0.829-0.235,1.282-0.235c0.451,0,0.879,0.094,1.283,0.235
		c0.371,0.134,0.714,0.319,1.025,0.552c0.002,0.002,0.007,0.008,0.013,0.01c0.301,0.229,0.566,0.504,0.79,0.805
		c0.004,0.008,0.012,0.014,0.017,0.021c0.208,0.289,0.364,0.61,0.486,0.945c0.024,0.066,0.042,0.135,0.064,0.199
		c0.102,0.345,0.172,0.701,0.172,1.08C273.543,269.779,273.473,270.139,273.37,270.48z"/>
</g>
<g id="like_1_">
	<path fill="#F9662D" d="M209.372,251.283c-1.67-0.438-5.596-0.434-11.337-0.586c0.271-1.252,0.334-2.381,0.334-4.389
		c0-4.791-3.49-9.013-6.579-9.013c-2.181,0-3.979,1.782-4.007,3.976c-0.029,2.689-0.861,7.336-5.343,9.691
		c-0.329,0.174-1.269,0.637-1.407,0.696l0.071,0.062c-0.701-0.605-1.673-1.068-2.671-1.068h-4.007c-2.209,0-4.007,1.799-4.007,4.008
		v21.369c0,2.211,1.798,4.008,4.007,4.008h4.007c1.589,0,2.92-0.96,3.563-2.307c0.017,0.006,0.044,0.014,0.063,0.017
		c0.088,0.022,0.192,0.05,0.32,0.083c0.024,0.006,0.036,0.008,0.061,0.016c0.77,0.19,2.251,0.547,5.417,1.273
		c0.678,0.154,4.263,0.918,7.977,0.918h7.302c2.225,0,3.83-0.855,4.784-2.574c0.013-0.025,0.321-0.626,0.571-1.438
		c0.188-0.61,0.258-1.476,0.031-2.352c1.435-0.986,1.896-2.479,2.196-3.445c0.503-1.592,0.353-2.787,0.003-3.643
		c0.806-0.762,1.495-1.923,1.784-3.695c0.18-1.1-0.013-2.229-0.519-3.168c0.756-0.851,1.101-1.918,1.14-2.906l0.016-0.279
		c0.01-0.176,0.018-0.283,0.018-0.668C213.159,254.182,211.991,252.029,209.372,251.283z M179.769,276.029
		c0,0.738-0.597,1.336-1.336,1.336h-4.007c-0.739,0-1.335-0.598-1.335-1.336V254.66c0-0.739,0.597-1.336,1.335-1.336h4.007
		c0.739,0,1.336,0.597,1.336,1.336V276.029z M210.457,256.71c-0.026,0.658-0.303,1.956-2.64,1.956c-2.003,0-2.671,0-2.671,0
		c-0.371,0-0.668,0.299-0.668,0.668c0,0.368,0.297,0.668,0.668,0.668c0,0,0.584,0,2.588,0c2.003,0,2.267,1.661,2.138,2.463
		c-0.166,0.996-0.633,2.881-2.889,2.881c-2.254,0-3.172,0-3.172,0c-0.37,0-0.667,0.297-0.667,0.666c0,0.368,0.297,0.668,0.667,0.668
		c0,0,1.586,0,2.63,0c2.255,0,2.056,1.721,1.732,2.744c-0.425,1.35-0.686,2.6-3.527,2.6c-0.96,0-2.178,0-2.178,0
		c-0.371,0-0.668,0.297-0.668,0.668c0,0.367,0.297,0.668,0.668,0.668c0,0,0.926,0,2.095,0c1.461,0,1.529,1.383,1.376,1.877
		c-0.167,0.543-0.364,0.945-0.372,0.963c-0.404,0.729-1.054,1.166-2.431,1.166h-7.302c-3.668,0-7.306-0.832-7.4-0.854
		c-5.548-1.277-5.841-1.377-6.189-1.477c0,0-1.13-0.189-1.13-1.176l-0.009-18.449c0-0.627,0.399-1.191,1.061-1.393
		c0.083-0.031,0.195-0.065,0.275-0.101c6.101-2.526,7.959-8.065,8.014-12.614c0.008-0.642,0.5-1.336,1.335-1.336
		c1.411,0,3.908,2.833,3.908,6.342c0,3.166-0.128,3.713-1.236,7.014c13.356,0,13.262,0.193,14.441,0.502
		c1.461,0.418,1.586,1.628,1.586,2.044C210.488,256.327,210.475,256.26,210.457,256.71z"/>
	<path fill="#F9662D" d="M176.429,272.023c-1.106,0-2.003,0.896-2.003,2.004c0,1.104,0.897,2.002,2.003,2.002
		s2.003-0.896,2.003-2.002C178.433,272.92,177.535,272.023,176.429,272.023z M176.429,274.693c-0.367,0-0.667-0.299-0.667-0.666
		c0-0.368,0.3-0.668,0.667-0.668c0.367,0,0.668,0.3,0.668,0.668C177.097,274.395,176.796,274.693,176.429,274.693z"/>
</g>
</svg>
